# xmcd CD database file
#
# Track frame offsets:
#	150
#	13970
#	25640
#	39555
#	53372
#	65737
#	81232
#	94312
#
# Disc length: 1451 seconds
#
# Revision: 1
# Processed by: cddbd v1.4PL0 Copyright (c) Steve Scherf et al.
# Submitted via: CDex 1.50
#
DISCID=6005a908
DTITLE=ILLINOIS JACQUET - COLLATES
DYEAR=1951
DGENRE=Jazz
TTITLE0=ALL OF ME
TTITLE1=PASTEL
TTITLE2=SPEEDLINER
TTITLE3=LATER FOR THE HAPPENIN'
TTITLE4=GROOVIN'
TTITLE5=WRAP YOUR TROUBLES IN DREAMS
TTITLE6=COTTONTAIL
TTITLE7=WEARY BLUES
EXTD=YEAR: 1951
EXTT0=
EXTT1=
EXTT2=
EXTT3=
EXTT4=
EXTT5=
EXTT6=
EXTT7=
PLAYORDER=
